<svg version="1.1"
	xmlns="http://www.w3.org/2000/svg" viewBox="0 0 607.626 607.626">
                <path id="Path_63_" clip-rule="evenodd" d="m607.626 43.402c0-23.97-19.431-43.402-43.401-43.402h-472.43c22.279 24.646 22.279 62.158 0 86.804h472.43c23.97 0 43.401-19.432 43.401-43.402z" fill-rule="evenodd"/>
                <path id="Shape_45_" d="m553.374 596.776v-488.271h-499.122v488.271c0 5.993 4.858 10.85 10.85 10.85h477.421c5.993 0 10.851-4.857 10.851-10.85zm-412.318-108.505h-10.85c-5.993 0-10.85-4.858-10.85-10.85s4.858-10.85 10.85-10.85h10.85c5.993 0 10.85 4.858 10.85 10.85s-4.857 10.85-10.85 10.85zm0-119.355h-10.85c-5.993 0-10.85-4.858-10.85-10.85s4.858-10.85 10.85-10.85h10.85c5.993 0 10.85 4.858 10.85 10.85s-4.857 10.85-10.85 10.85zm0-119.355h-10.85c-5.993 0-10.85-4.858-10.85-10.85 0-5.993 4.858-10.85 10.85-10.85h10.85c5.993 0 10.85 4.858 10.85 10.85.001 5.992-4.857 10.85-10.85 10.85zm227.86 238.71h-184.458c-5.993 0-10.85-4.858-10.85-10.85s4.858-10.85 10.85-10.85h184.458c5.993 0 10.85 4.858 10.85 10.85s-4.857 10.85-10.85 10.85zm0-119.355h-184.458c-5.993 0-10.85-4.858-10.85-10.85s4.858-10.85 10.85-10.85h184.458c5.993 0 10.85 4.858 10.85 10.85s-4.857 10.85-10.85 10.85zm0-119.355h-184.458c-5.993 0-10.85-4.858-10.85-10.85 0-5.993 4.858-10.85 10.85-10.85h184.458c5.993 0 10.85 4.858 10.85 10.85.001 5.992-4.857 10.85-10.85 10.85zm116.176 202.98-43.402 43.402c-4.237 4.236-11.105 4.236-15.343 0l-21.701-21.701c-4.112-4.258-4.053-11.025.132-15.21s10.953-4.244 15.21-.132l14.03 14.03 35.731-35.731c4.258-4.112 11.025-4.053 15.21.132 4.186 4.185 4.245 10.952.133 15.21zm0-119.356-43.402 43.402c-4.237 4.236-11.105 4.236-15.343 0l-21.701-21.701c-4.112-4.257-4.053-11.025.132-15.21s10.953-4.244 15.21-.132l14.03 14.03 35.731-35.731c4.258-4.112 11.025-4.053 15.21.132 4.186 4.185 4.245 10.953.133 15.21zm0-119.355-43.402 43.402c-4.237 4.236-11.105 4.236-15.343 0l-21.701-21.701c-4.112-4.258-4.053-11.025.132-15.21s10.953-4.244 15.21-.132l14.03 14.03 35.731-35.731c4.258-4.112 11.025-4.053 15.21.132 4.186 4.185 4.245 10.953.133 15.21z"/>
                <path id="Path_62_" clip-rule="evenodd" d="m10.85 401.467h21.701v-303.813c0-5.993 4.858-10.85 10.85-10.85 23.97 0 43.402-19.432 43.402-43.402s-19.431-43.402-43.401-43.402-43.402 19.432-43.402 43.402v347.215c0 5.993 4.858 10.85 10.85 10.85z" fill-rule="evenodd"/>
</svg>
